<mxfile host="app.diagrams.net" agent="Mozilla/5.0 (Windows NT 10.0; Win64; x64) AppleWebKit/537.36 (KHTML, like Gecko) Chrome/138.0.0.0 Safari/537.36" version="28.0.7">
  <diagram name="Page-1" id="O76OqlBA-53MLUcDElpJ">
    <mxGraphModel dx="1042" dy="527" grid="1" gridSize="10" guides="1" tooltips="1" connect="1" arrows="1" fold="1" page="1" pageScale="1" pageWidth="850" pageHeight="1100" math="0" shadow="0">
      <root>
        <mxCell id="0" />
        <mxCell id="1" parent="0" />
        <mxCell id="PPQTYa4_UQb3VozniPx9-27" value="" style="edgeStyle=orthogonalEdgeStyle;rounded=0;orthogonalLoop=1;jettySize=auto;html=1;" edge="1" parent="1" source="PPQTYa4_UQb3VozniPx9-19" target="PPQTYa4_UQb3VozniPx9-26">
          <mxGeometry relative="1" as="geometry" />
        </mxCell>
        <mxCell id="PPQTYa4_UQb3VozniPx9-19" value="Build" style="ellipse;whiteSpace=wrap;html=1;aspect=fixed;" vertex="1" parent="1">
          <mxGeometry x="340" y="450" width="80" height="80" as="geometry" />
        </mxCell>
        <mxCell id="PPQTYa4_UQb3VozniPx9-29" value="" style="edgeStyle=orthogonalEdgeStyle;rounded=0;orthogonalLoop=1;jettySize=auto;html=1;" edge="1" parent="1" source="PPQTYa4_UQb3VozniPx9-26" target="PPQTYa4_UQb3VozniPx9-28">
          <mxGeometry relative="1" as="geometry" />
        </mxCell>
        <mxCell id="PPQTYa4_UQb3VozniPx9-26" value="Test" style="ellipse;whiteSpace=wrap;html=1;aspect=fixed;" vertex="1" parent="1">
          <mxGeometry x="340" y="610" width="80" height="80" as="geometry" />
        </mxCell>
        <mxCell id="PPQTYa4_UQb3VozniPx9-50" value="" style="edgeStyle=orthogonalEdgeStyle;rounded=0;orthogonalLoop=1;jettySize=auto;html=1;" edge="1" parent="1" source="PPQTYa4_UQb3VozniPx9-28" target="PPQTYa4_UQb3VozniPx9-49">
          <mxGeometry relative="1" as="geometry" />
        </mxCell>
        <mxCell id="PPQTYa4_UQb3VozniPx9-28" value="Release" style="ellipse;whiteSpace=wrap;html=1;aspect=fixed;" vertex="1" parent="1">
          <mxGeometry x="340" y="770" width="80" height="80" as="geometry" />
        </mxCell>
        <mxCell id="PPQTYa4_UQb3VozniPx9-38" value="" style="edgeStyle=orthogonalEdgeStyle;rounded=0;orthogonalLoop=1;jettySize=auto;html=1;" edge="1" parent="1" source="PPQTYa4_UQb3VozniPx9-31" target="PPQTYa4_UQb3VozniPx9-19">
          <mxGeometry relative="1" as="geometry" />
        </mxCell>
        <mxCell id="PPQTYa4_UQb3VozniPx9-31" value="Develop" style="ellipse;whiteSpace=wrap;html=1;aspect=fixed;" vertex="1" parent="1">
          <mxGeometry x="340" y="290" width="80" height="80" as="geometry" />
        </mxCell>
        <mxCell id="PPQTYa4_UQb3VozniPx9-37" value="" style="edgeStyle=orthogonalEdgeStyle;rounded=0;orthogonalLoop=1;jettySize=auto;html=1;" edge="1" parent="1" source="PPQTYa4_UQb3VozniPx9-33" target="PPQTYa4_UQb3VozniPx9-31">
          <mxGeometry relative="1" as="geometry" />
        </mxCell>
        <mxCell id="PPQTYa4_UQb3VozniPx9-33" value="Plan" style="ellipse;whiteSpace=wrap;html=1;aspect=fixed;" vertex="1" parent="1">
          <mxGeometry x="340" y="130" width="80" height="80" as="geometry" />
        </mxCell>
        <mxCell id="PPQTYa4_UQb3VozniPx9-44" value="" style="edgeStyle=orthogonalEdgeStyle;rounded=0;orthogonalLoop=1;jettySize=auto;html=1;" edge="1" parent="1" target="PPQTYa4_UQb3VozniPx9-43">
          <mxGeometry relative="1" as="geometry">
            <mxPoint x="380" y="1010" as="sourcePoint" />
          </mxGeometry>
        </mxCell>
        <mxCell id="PPQTYa4_UQb3VozniPx9-46" value="" style="edgeStyle=orthogonalEdgeStyle;rounded=0;orthogonalLoop=1;jettySize=auto;html=1;" edge="1" parent="1" source="PPQTYa4_UQb3VozniPx9-43" target="PPQTYa4_UQb3VozniPx9-45">
          <mxGeometry relative="1" as="geometry" />
        </mxCell>
        <mxCell id="PPQTYa4_UQb3VozniPx9-43" value="Operate" style="ellipse;whiteSpace=wrap;html=1;aspect=fixed;" vertex="1" parent="1">
          <mxGeometry x="340" y="1090" width="80" height="80" as="geometry" />
        </mxCell>
        <mxCell id="PPQTYa4_UQb3VozniPx9-45" value="Monitor" style="ellipse;whiteSpace=wrap;html=1;aspect=fixed;" vertex="1" parent="1">
          <mxGeometry x="340" y="1250" width="80" height="80" as="geometry" />
        </mxCell>
        <mxCell id="PPQTYa4_UQb3VozniPx9-49" value="Deploy" style="ellipse;whiteSpace=wrap;html=1;aspect=fixed;" vertex="1" parent="1">
          <mxGeometry x="340" y="930" width="80" height="80" as="geometry" />
        </mxCell>
      </root>
    </mxGraphModel>
  </diagram>
</mxfile>
